<svg width="78" height="30" viewBox="0 0 78 30" fill="none" xmlns="http://www.w3.org/2000/svg">
<rect width="30" height="30" rx="15" fill="white"/>
<path d="M14.999 26.25C21.2122 26.25 26.249 21.2132 26.249 15C26.249 8.7868 21.2122 3.75 14.999 3.75C8.78582 3.75 3.74902 8.7868 3.74902 15C3.74902 21.2132 8.78582 26.25 14.999 26.25Z" fill="#FF7A00" stroke="#EC6300" stroke-width="1.25"/>
<rect x="47.8828" width="30" height="30" rx="15" fill="white"/>
<path d="M62.8838 26.25C69.097 26.25 74.1338 21.2132 74.1338 15C74.1338 8.7868 69.097 3.75 62.8838 3.75C56.6706 3.75 51.6338 8.7868 51.6338 15C51.6338 21.2132 56.6706 26.25 62.8838 26.25Z" fill="#222222" stroke="black" stroke-width="1.25"/>
</svg>
