<svg width="204" height="108" viewBox="0 0 204 108" fill="none" xmlns="http://www.w3.org/2000/svg">
<rect opacity="0.5" x="2" y="2" width="200" height="102" rx="33" stroke="white" stroke-width="4"/>
<path d="M58.072 52.704C62.4667 55.136 64.664 58.7627 64.664 63.584C64.664 67.68 63.2347 70.9227 60.376 73.312C57.5173 75.6587 53.72 76.832 48.984 76.832C44.248 76.832 40.4293 75.6587 37.528 73.312C34.6693 70.9227 33.24 67.68 33.24 63.584C33.24 61.28 33.816 59.1893 34.968 57.312C36.12 55.392 37.7413 53.856 39.832 52.704C36.4613 50.4853 34.776 47.328 34.776 43.232C34.776 39.136 36.1413 35.9787 38.872 33.76C41.6027 31.4987 44.9733 30.368 48.984 30.368C52.952 30.368 56.3013 31.4987 59.032 33.76C61.8053 35.9787 63.192 39.136 63.192 43.232C63.192 47.328 61.4853 50.4853 58.072 52.704ZM48.984 37.344C46.9787 37.344 45.336 37.8773 44.056 38.944C42.776 40.0107 42.136 41.5467 42.136 43.552C42.136 45.472 42.776 46.9867 44.056 48.096C45.3787 49.2053 47.0213 49.76 48.984 49.76C50.904 49.76 52.5253 49.2053 53.848 48.096C55.1707 46.9867 55.832 45.472 55.832 43.552C55.832 41.5467 55.1707 40.0107 53.848 38.944C52.568 37.8773 50.9467 37.344 48.984 37.344ZM48.984 69.856C51.4587 69.856 53.464 69.2587 55 68.064C56.536 66.8267 57.304 65.0987 57.304 62.88C57.304 60.6613 56.536 58.9547 55 57.76C53.464 56.5227 51.4587 55.904 48.984 55.904C46.4667 55.904 44.44 56.5227 42.904 57.76C41.368 58.9547 40.6 60.6613 40.6 62.88C40.6 65.0987 41.368 66.8267 42.904 68.064C44.44 69.2587 46.4667 69.856 48.984 69.856ZM130.939 52.832V55.904C130.939 62.048 128.912 67.0827 124.859 71.008C120.806 74.8907 115.515 76.832 108.987 76.832C102.075 76.832 96.3577 74.592 91.835 70.112C87.355 65.632 85.115 60.128 85.115 53.6C85.115 47.1147 87.355 41.632 91.835 37.152C96.3577 32.6293 101.947 30.368 108.603 30.368C112.784 30.368 116.603 31.328 120.059 33.248C123.515 35.168 126.203 37.7493 128.123 40.992L121.787 44.64C120.592 42.5067 118.822 40.8 116.475 39.52C114.128 38.1973 111.504 37.536 108.603 37.536C103.91 37.536 100.048 39.072 97.019 42.144C93.9897 45.216 92.475 49.056 92.475 53.664C92.475 58.272 93.9897 62.0907 97.019 65.12C100.091 68.1493 104.102 69.664 109.051 69.664C113.019 69.664 116.24 68.7467 118.715 66.912C121.232 65.0347 122.832 62.5387 123.515 59.424H108.539V52.832H130.939ZM164.036 52.768C165.998 53.792 167.534 55.2 168.644 56.992C169.753 58.784 170.308 60.8533 170.308 63.2C170.308 66.8693 169.006 69.92 166.404 72.352C163.801 74.784 160.622 76 156.868 76H137.668V31.2H155.46C159.129 31.2 162.222 32.3947 164.74 34.784C167.3 37.1307 168.58 40.0747 168.58 43.616C168.58 47.4987 167.065 50.5493 164.036 52.768ZM155.46 38.112H145.028V49.888H155.46C157.081 49.888 158.446 49.3333 159.556 48.224C160.665 47.072 161.22 45.664 161.22 44C161.22 42.336 160.665 40.9493 159.556 39.84C158.446 38.688 157.081 38.112 155.46 38.112ZM156.868 69.088C158.574 69.088 160.004 68.4907 161.156 67.296C162.35 66.0587 162.948 64.5653 162.948 62.816C162.948 61.0667 162.35 59.5947 161.156 58.4C160.004 57.1627 158.574 56.544 156.868 56.544H145.028V69.088H156.868Z" fill="white"/>
</svg>
