<svg width="271" height="77" viewBox="0 0 271 77" fill="none" xmlns="http://www.w3.org/2000/svg">
<g clip-path="url(#clip0_0_1948)">
<path d="M270.984 50.6891V50.588C270.938 49.0313 270.891 47.4746 270.697 45.8324C270.6 44.8337 270.29 43.8675 269.787 42.9993L269.741 42.9214C268.848 41.3559 267.417 40.1691 265.714 39.5824H265.613C264.468 39.2109 263.273 39.0193 262.069 39.0142L262.022 32.7487C262.026 32.3491 261.99 31.9501 261.914 31.5578C261.825 31.0848 261.641 30.6348 261.372 30.2359C261.103 29.837 260.756 29.4975 260.351 29.2385C259.946 28.9796 259.492 28.8065 259.017 28.7302C258.543 28.6539 258.058 28.6759 257.592 28.7948L256.037 29.1917C255.167 29.4252 254.218 29.6743 253.107 29.97L250.355 30.6783L248.529 31.1453C248.041 31.2682 247.585 31.4937 247.192 31.8069C246.898 31.7268 246.595 31.685 246.29 31.6824C246.071 31.6812 245.853 31.6994 245.637 31.7368L237.235 33.2935C233.045 33.815 230.115 34.282 228.273 34.7178C227.586 34.8817 226.964 35.2483 226.487 35.77C226.01 36.2917 225.701 36.9447 225.599 37.6444C223.827 35.7443 221.376 34.6248 218.782 34.531C218.378 34.531 217.966 34.531 217.546 34.531C216.751 34.5284 215.957 34.5752 215.168 34.6711H214.997C214.494 34.7222 213.995 34.808 213.504 34.928C212.999 35.0681 212.494 35.2004 212.027 35.3405L211.608 35.4573L211.359 35.5351C210.234 35.8928 209.191 36.4704 208.29 37.2346C207.39 37.9989 206.649 38.9344 206.112 39.9871C205.002 38.5926 203.638 37.4202 202.094 36.5313C201.658 36.2675 201.17 36.1028 200.664 36.0488L185.646 34.4065H185.266C184.774 34.4095 184.289 34.5184 183.843 34.7256C183.555 34.6028 183.252 34.5191 182.942 34.4766L165.779 32.4529C165.285 32.3958 164.784 32.444 164.31 32.5942C163.836 32.7445 163.399 32.9934 163.028 33.3246C162.702 33.6237 162.438 33.9832 162.25 34.3832C162.071 34.1652 161.885 33.9551 161.698 33.7527C160.324 32.1855 158.559 31.0117 156.584 30.3514L156.475 30.2969C156.331 30.2215 156.18 30.159 156.024 30.1101C155.79 30.0318 155.551 29.9669 155.309 29.9156C155.106 29.8598 154.897 29.8233 154.687 29.8066C152.938 29.6431 151.267 29.5653 149.581 29.5653C148.941 29.5474 148.301 29.6075 147.676 29.7443L147.497 29.7832C146.501 30.0068 145.563 30.4392 144.746 31.0519V24.7786C144.748 24.4793 144.712 24.181 144.637 23.8913L144.59 23.7123C144.424 23.0515 144.069 22.4533 143.57 21.9904C143.07 21.5275 142.447 21.2199 141.777 21.1049L140.937 20.957C139.919 20.7858 138.512 20.5445 136.74 20.1787C135.185 19.8596 133.864 19.6416 132.9 19.486L132.037 19.3381C131.837 19.3071 131.634 19.2914 131.431 19.2914C130.851 19.2892 130.28 19.4301 129.767 19.7016C129.255 19.9731 128.817 20.3669 128.493 20.848C128.322 20.335 128.035 19.8687 127.653 19.486L127.513 19.3459C127.019 18.8492 126.389 18.5106 125.702 18.373L115.372 16.3259C115.147 16.2824 114.918 16.2616 114.688 16.2637C113.95 16.264 113.23 16.4963 112.631 16.9277C112.031 17.3592 111.582 17.9681 111.346 18.6687L111.299 18.8088C111.179 19.1936 111.129 19.597 111.152 19.9997L111.19 27.6973C111.199 28.5606 111.523 29.391 112.1 30.0323V30.6394C111.991 30.6394 111.89 30.5771 111.773 30.5616C109.978 30.1881 108.161 29.9282 106.332 29.7832C106.114 29.6975 105.888 29.6348 105.656 29.5964C103.889 29.2365 102.1 28.9947 100.301 28.8726C100.158 28.8649 100.016 28.8649 99.8732 28.8726L99.5079 28.9193C99.2415 28.9627 98.9808 29.0358 98.7306 29.1372C98.4887 28.0274 98.121 26.9489 97.6346 25.9227C97.153 24.9436 96.515 24.0498 95.7458 23.2764C95.6286 23.1681 95.5171 23.0538 95.4116 22.934C95.3583 22.8636 95.2984 22.7984 95.2328 22.7394C95.2328 22.7394 95.1862 22.6693 95.1551 22.646L95.0929 22.5837C95.0703 22.5678 95.0495 22.5495 95.0307 22.5292L94.8519 22.3736L94.7975 22.3346C94.6955 22.2283 94.5835 22.1319 94.4633 22.0467C94.2157 21.8863 93.9558 21.7458 93.686 21.6264C91.7642 20.4749 89.5674 19.8645 87.3278 19.8596C85.4207 19.9053 83.5439 20.348 81.8169 21.1594L81.2262 21.4318C80.9161 20.8586 80.4568 20.3801 79.8971 20.0471C79.3374 19.7141 78.6981 19.539 78.0471 19.5404H70.1576C69.8964 19.5368 69.6357 19.5629 69.3804 19.6183C69.1251 19.5623 68.8643 19.5362 68.6031 19.5404H60.5504C60.181 19.541 59.814 19.5988 59.4622 19.7117C59.2949 19.6868 59.1261 19.6738 58.957 19.6728L50.7955 19.8129C50.1374 19.8309 49.4975 20.0329 48.9481 20.396C48.3987 20.7591 47.9616 21.2688 47.6864 21.8676C47.5767 21.7836 47.4626 21.7056 47.3444 21.6341C47.0824 21.4231 46.7919 21.2501 46.4816 21.1204L46.1551 21.0115H46.1163C45.8021 20.7902 45.4525 20.6243 45.0825 20.5211C44.7552 20.3904 44.4171 20.2889 44.072 20.2176C43.8492 20.1608 43.6235 20.1166 43.3958 20.0853H43.3025H43.0771L42.7506 19.9685H42.4319H42.2143H41.7868C41.363 19.9686 40.9397 19.9972 40.5198 20.0541C40.1957 20.0825 39.8737 20.1319 39.556 20.202H39.4238C37.5539 20.6627 35.7714 21.425 34.1461 22.4592C34.1461 22.3502 34.1461 22.2412 34.1461 22.1323V14.349C34.1463 14.1509 34.1307 13.9531 34.0994 13.7575L34.0528 13.485C33.9117 12.6624 33.485 11.916 32.8479 11.3777C32.2107 10.8394 31.4042 10.5438 30.5706 10.543C30.3092 10.5445 30.0487 10.5732 29.7933 10.6286L19.4321 12.9869C18.8609 13.1192 18.3313 13.391 17.8905 13.7781C17.4498 14.1651 17.1115 14.6554 16.9059 15.2052L16.6883 15.0339C16.0856 14.5938 15.3589 14.3567 14.6129 14.3568C14.246 14.3565 13.8814 14.4143 13.5325 14.528L2.53395 18.0772C1.82513 18.3085 1.20745 18.7582 0.76913 19.3621C0.330807 19.9659 0.0942597 20.693 0.0932741 21.4396V29.3162C0.0920362 29.7823 0.183498 30.244 0.362325 30.6742C0.541151 31.1045 0.803761 31.4949 1.13483 31.8225V52.3158C1.10478 52.6444 1.09181 52.9744 1.09597 53.3043V53.4133C1.10722 54.218 0.888789 55.0091 0.46637 55.6938C0.16151 56.227 0.00076574 56.8306 0 57.445L0 65.275C0.000359699 65.8407 0.136043 66.398 0.395691 66.9004C0.655339 67.4028 1.0314 67.8356 1.49238 68.1626C2.08961 68.5807 2.80016 68.8061 3.52887 68.8086C3.93194 68.8083 4.33183 68.7372 4.71034 68.5985L12.5842 65.7731C13.09 65.5951 13.5476 65.302 13.9212 64.917C14.6851 65.1578 15.5087 65.1276 16.253 64.8314L18.2506 64.053C18.5608 63.9312 18.8535 63.769 19.1212 63.5705C19.3023 63.6239 19.4866 63.6655 19.6731 63.695H19.7508H20.0539H20.2094C20.3866 63.6945 20.5634 63.6789 20.7379 63.6483H20.8545H20.9323H21.01L31.2546 61.2355C32.0275 61.0544 32.7164 60.6165 33.209 59.9932C33.7016 59.3699 33.9689 58.5979 33.9673 57.8031V55.9273C34.9403 56.4474 36.028 56.715 37.1308 56.7056C38.3329 56.6875 39.5154 56.3975 40.5898 55.8572L40.6908 55.8027C41.0406 55.6237 41.3748 55.4214 41.6935 55.219C42.0026 55.3029 42.3215 55.3448 42.6418 55.3435H43.0149L49.7617 54.6197C50.3416 54.8498 50.9731 54.917 51.5883 54.8143C51.7724 54.7821 51.9542 54.7379 52.1324 54.682C52.2515 54.6897 52.3709 54.6897 52.49 54.682C54.2 54.5107 55.8789 54.3706 57.5967 54.2461C58.7549 54.2461 59.9286 54.1838 61.0867 54.1838C61.5609 54.1838 62.035 54.1838 62.5092 54.1838H62.6024C64.2736 54.1838 65.8981 54.2227 67.6237 54.2694H67.8802C68.9062 54.2694 69.9789 54.2694 71.1059 54.3473L72.8237 54.4018C73.7798 54.4018 74.7592 54.4952 75.8007 54.5652L77.4641 54.6742H77.7284C78.6221 54.6612 79.4788 54.3142 80.1302 53.7013V53.6623C81.0499 54.5041 82.1677 55.0986 83.3792 55.3902L83.6668 55.4447C84.1482 55.5152 84.6339 55.5517 85.1204 55.5537C86.201 55.5588 87.2724 55.3553 88.2761 54.9544C88.662 55.1391 89.0781 55.2524 89.5042 55.2891L95.6448 55.7872H95.9324C96.7954 55.7828 97.6261 55.4583 98.2642 54.8765C98.582 54.607 98.8458 54.2795 99.0415 53.9114L99.3058 53.9737L99.5934 54.0204C100.029 54.0826 100.767 54.1994 101.832 54.3395C102.322 54.4173 102.858 54.5029 103.387 54.5652C103.721 54.6253 104.058 54.6668 104.397 54.6897C104.472 54.6855 104.547 54.6855 104.622 54.6897H104.84L105.027 54.7676C105.24 54.8523 105.461 54.9149 105.687 54.9544L110.561 55.865C110.725 55.8925 110.892 55.9081 111.058 55.9117L110.965 63.0412C110.961 63.5116 111.051 63.978 111.228 64.4136C111.406 64.8491 111.668 65.2451 111.999 65.5786L112.139 65.7187C112.672 66.2496 113.361 66.5959 114.105 66.7071C116.95 67.1352 119.158 67.4855 120.704 67.7345L122.259 67.9836C122.44 67.9949 122.622 67.9949 122.803 67.9836C123.287 67.9828 123.765 67.8849 124.21 67.6956L124.288 67.7579C124.858 68.2171 125.555 68.4889 126.285 68.5362L127.84 68.7386C127.987 68.746 128.135 68.746 128.283 68.7386C128.631 68.7388 128.977 68.6863 129.309 68.5829C129.825 69.1322 130.503 69.5006 131.244 69.6336L140.758 71.3615C140.966 71.4015 141.177 71.4223 141.388 71.4238C141.857 71.4239 142.321 71.3304 142.753 71.149C143.185 70.9675 143.577 70.7017 143.905 70.3669C144.234 70.0322 144.493 69.6352 144.666 69.1993C144.84 68.7634 144.925 68.2972 144.917 67.8279V66.8472C145.454 67.3622 146.034 67.8309 146.65 68.2482C148.374 69.4643 150.393 70.1929 152.495 70.3575C153.201 70.4585 153.912 70.5105 154.625 70.5132C155.743 70.5126 156.857 70.3794 157.944 70.1162C158.884 69.9346 159.788 69.5979 160.618 69.1199V70.8478C160.607 71.6944 160.9 72.5168 161.443 73.1653C161.987 73.8138 162.745 74.2454 163.579 74.3814L169.184 75.2921C169.369 75.3231 169.556 75.3387 169.743 75.3388C170.582 75.3388 171.393 75.0378 172.028 74.4904C172.419 74.161 172.733 73.749 172.946 73.284C173.064 74.0665 173.44 74.7868 174.015 75.3299C174.59 75.873 175.33 76.2077 176.117 76.2806L182.716 76.8721H183.035C183.866 76.8726 184.67 76.578 185.305 76.0408C185.94 75.5036 186.364 74.7585 186.501 73.9378L201.013 74.4204C201.463 74.4172 201.909 74.3301 202.327 74.1635C202.594 74.0502 202.854 73.9202 203.104 73.7743H203.151L203.679 73.5097C203.809 73.4474 203.941 73.3774 204.076 73.2996C204.393 73.1035 204.692 72.8794 204.97 72.6302L205.047 72.5679C205.75 72.0226 206.363 71.3715 206.866 70.6377C206.944 70.7544 207.006 70.8868 207.084 71.0035L207.131 71.0735C208.423 73.0079 210.346 74.4329 212.572 75.1053C212.742 75.1591 212.916 75.1981 213.092 75.222L213.388 75.2687L214.111 75.3699C214.258 75.3777 214.406 75.3777 214.554 75.3699C214.741 75.4009 214.931 75.4166 215.121 75.4166H216.233H216.66H216.8C216.937 75.4244 217.075 75.4244 217.212 75.4166L220.321 75.0508C220.721 75.0053 221.11 74.8921 221.471 74.7161H221.394L221.79 74.5682L222.521 74.2803C223.418 73.9068 224.26 73.4118 225.024 72.8092L225.07 73.642C225.126 74.5396 225.521 75.3822 226.175 75.9983C226.829 76.6143 227.693 76.9574 228.591 76.9577C228.853 76.9621 229.113 76.936 229.369 76.8799C229.711 76.8098 230.239 76.7398 230.853 76.6542L231.46 76.5763C232.074 76.5296 232.742 76.5063 233.496 76.5063C233.882 76.507 234.265 76.4439 234.631 76.3195L234.763 76.2728C235.509 76.0202 236.149 75.5252 236.581 74.8666C237.013 74.208 237.213 73.4236 237.149 72.638C237.149 72.638 237.149 72.5679 237.149 72.529H237.406C237.602 73.3596 238.094 74.0901 238.789 74.5838C239.387 75.0076 240.101 75.2359 240.834 75.2376C241.074 75.2391 241.314 75.213 241.549 75.1598L247.176 74.0078C247.971 73.8446 248.685 73.4116 249.198 72.7819C249.711 72.1522 249.99 71.3645 249.99 70.5521V70.3575L250.285 70.303L250.519 70.2485C251.42 70.0306 252.648 69.7348 254.195 69.4157H254.273C255.688 69.0888 257.561 68.4739 260.149 67.6256L260.779 67.4154C261.491 67.1786 262.182 66.8845 262.846 66.5359C263.855 66.052 264.793 65.4342 265.637 64.699L265.839 64.52C266.589 63.7961 267.283 63.0155 267.914 62.185L268.015 62.0449C268.568 61.2482 269.064 60.4133 269.5 59.5465C269.894 58.8022 270.211 58.0199 270.448 57.2115C270.727 56.2957 270.871 55.3438 270.876 54.3862C270.876 54.1293 270.876 53.8725 270.915 53.6079C270.977 52.6505 271.023 51.701 270.984 50.6891Z" fill="white"/>
<path d="M195.138 64.1387C195.246 64.1393 195.353 64.155 195.456 64.1854L195.278 64.1387H195.138Z" fill="url(#paint0_linear_0_1948)"/>
<path d="M267.184 46.1976C267.127 45.667 266.957 45.1547 266.686 44.6954C266.216 43.8605 265.455 43.2286 264.549 42.9208C262.907 42.3677 261.127 42.3842 259.496 42.9675C259.038 43.1076 258.307 43.38 257.398 43.6991C257.398 43.7115 257.393 43.7234 257.384 43.7321C257.375 43.7409 257.363 43.7458 257.351 43.7458C257.313 43.6439 257.297 43.5352 257.304 43.4267C257.288 42.0432 257.737 40.6944 258.579 39.5973L258.532 32.7247C258.534 32.5575 258.519 32.3905 258.486 32.2266C257.211 32.5457 255.758 32.9582 254.024 33.3629C251.887 33.9078 250.34 34.3203 249.43 34.546L249.384 34.7795V42.1035C249.759 42.4078 250.031 42.8212 250.161 43.2866C250.244 43.5241 250.304 43.7691 250.34 44.0182V56.5804C250.34 57.9425 250.068 58.9154 249.563 59.398V66.8699C250.519 66.6364 251.832 66.3173 253.566 65.9593C254.926 65.6402 256.978 64.9553 259.784 64.0446C260.334 63.8647 260.868 63.6354 261.377 63.3597C262.134 63.0056 262.838 62.5471 263.468 61.9976C264.096 61.4066 264.676 60.7664 265.202 60.0829C265.681 59.4033 266.107 58.6877 266.476 57.9425C266.784 57.3633 267.029 56.7527 267.207 56.1212C267.391 55.5185 267.483 54.8913 267.479 54.261C267.526 53.1169 267.611 51.9805 267.564 50.7975C267.386 49.2953 267.386 47.7464 267.184 46.1976ZM260.087 55.8955C259.674 56.52 259.037 56.9606 258.307 57.1253C258.004 57.2412 257.683 57.3018 257.359 57.3043H257.172V50.6652L257.763 50.346C257.998 50.2621 258.244 50.2149 258.494 50.2059C258.85 50.1977 259.203 50.2712 259.526 50.421C259.85 50.5708 260.135 50.7927 260.359 51.0699C260.807 51.5511 261.052 52.1868 261.043 52.8445C261.093 53.9425 260.754 55.0229 260.087 55.8955Z" fill="url(#paint1_linear_0_1948)"/>
<path d="M214.709 57.0332L225.179 56.6285L224.861 45.2026V45.0158C224.947 43.2933 224.378 41.6021 223.267 40.2836C222.688 39.6071 221.974 39.0596 221.171 38.6762C220.368 38.2928 219.493 38.0821 218.604 38.0576C217.6 37.9979 216.594 38.0266 215.596 38.1432C215.198 38.1826 214.804 38.245 214.414 38.33L212.961 38.7347L212.455 38.8748C211.747 39.0962 211.091 39.4603 210.528 39.9448C209.965 40.4294 209.508 41.0241 209.183 41.6924C208.935 42.1579 208.737 42.6484 208.592 43.1556C208.099 44.7002 207.853 46.313 207.862 47.9346L208.134 64.6375C208.465 66.2444 209.098 67.7737 209.999 69.144C210.834 70.4166 212.093 71.3515 213.551 71.7826L214.507 71.9226H214.912L215.098 71.9693H215.914L217.01 71.8759L216.777 71.9226L219.886 71.5568C220.065 71.4634 220.244 71.4245 220.477 71.3311L221.161 71.0587C222.465 70.5221 223.575 69.5987 224.34 68.4124C224.695 67.8477 224.972 67.2377 225.164 66.5989C225.164 62.9563 225.164 60.2711 225.071 58.6288C222.744 58.7222 220.606 58.9038 218.658 59.1736L218.697 59.4928C218.883 61.8277 218.658 63.3143 218.153 63.9526C217.874 64.1545 217.541 64.2659 217.197 64.2717C217.095 64.3094 216.986 64.3253 216.878 64.3184C215.743 64.3651 215.059 63.7736 214.919 62.4504V62.2636C214.867 62.1484 214.838 62.0241 214.834 61.8978V61.8511C214.787 61.1272 214.741 59.8508 214.694 58.0295V57.0332H214.709ZM214.577 50.9389C214.531 49.9816 214.531 49.5224 214.531 49.4368C214.48 48.5081 214.617 47.5787 214.935 46.7048C214.935 46.6581 214.981 46.6581 214.981 46.5647C215.044 46.4337 215.122 46.3109 215.215 46.1989C215.215 46.1133 215.254 46.1133 215.254 46.0666C215.29 45.9832 215.357 45.9166 215.44 45.8798V45.8409H215.487C215.487 45.7475 215.665 45.6541 215.759 45.5685C215.776 45.5509 215.796 45.5375 215.819 45.5294C215.842 45.5212 215.867 45.5186 215.891 45.5218C216.087 45.4121 216.304 45.3482 216.528 45.335C217.531 45.335 218.168 46.1133 218.58 47.5688C218.841 48.7642 218.917 49.9928 218.806 51.2113H218.487C218.122 51.2113 217.803 51.1646 217.531 51.1646C216.542 51.1583 215.555 51.0829 214.577 50.9389Z" fill="url(#paint2_linear_0_1948)"/>
<path d="M245.203 57.5936V45.4283C245.203 45.2882 245.25 45.1559 245.25 44.9769C245.305 44.5403 245.412 44.1119 245.568 43.7005C245.781 43.2505 246.062 42.8358 246.4 42.4707L246.315 35.1855L237.803 36.7422C233.754 37.2403 230.808 37.6995 229.105 38.1043L229.152 45.4361C229.439 45.5629 229.68 45.7734 229.845 46.04C230.01 46.3067 230.091 46.6171 230.077 46.9305C230.124 47.3456 230.17 47.9372 230.217 48.7051C230.194 48.7381 230.181 48.7775 230.181 48.818C230.181 48.8584 230.194 48.8979 230.217 48.9308L229.533 61.135C229.416 61.5544 229.203 61.9407 228.911 62.2636C228.639 62.5754 228.315 62.8385 227.955 63.0419L228.592 73.4715C229.23 73.3314 230.046 73.238 231.049 73.1057C231.593 73.059 232.37 73.0123 233.466 73.0123L233.598 72.9656C233.508 72.0767 233.6 71.1787 233.87 70.3271V70.2804V70.1325C233.974 69.966 234.097 69.8119 234.236 69.6733C235.65 69.1058 237.188 68.918 238.697 69.1284H239.016C239.101 69.1751 239.148 69.2218 239.288 69.3152C239.69 69.5972 240.028 69.9617 240.278 70.3844C240.529 70.8071 240.687 71.2784 240.741 71.767L246.431 70.5839V59.7185C246.136 59.4226 245.863 59.1052 245.615 58.7689C245.34 58.4398 245.194 58.0223 245.203 57.5936ZM236.878 61.5942L234.78 61.8199L235.736 44.9847L235.782 44.1597L238.06 43.8873L238.239 61.4152L236.878 61.5942Z" fill="url(#paint3_linear_0_1948)"/>
<path d="M203.564 56.5843C202.633 55.6402 201.557 54.8518 200.377 54.2493C201.113 54.0551 201.795 53.6946 202.37 53.1954C202.946 52.6961 203.399 52.0715 203.696 51.3695C204.332 49.8259 204.642 48.1668 204.605 46.4972C204.679 45.088 204.315 43.6904 203.564 42.4966C202.699 41.2949 201.579 40.3006 200.284 39.5856L185.267 37.9434L185.352 45.5476C185.658 45.6522 185.917 45.8618 186.083 46.1392C186.246 46.3992 186.339 46.6966 186.355 47.0031V61.3633C186.375 61.6545 186.344 61.9471 186.262 62.2272C186.154 62.4533 186 62.6547 185.811 62.8187V70.4697L200.968 70.9678C201.193 70.8744 201.419 70.7421 201.605 70.6487C201.792 70.5553 202.009 70.423 202.242 70.3296C202.476 70.2362 202.693 69.9638 202.88 69.8315C203.426 69.4015 203.887 68.8736 204.24 68.2748C204.64 67.2961 204.917 66.2711 205.064 65.2238C205.282 63.8864 205.342 62.5279 205.243 61.1765C205.256 59.4928 204.66 57.8612 203.564 56.5843ZM193.413 45.6877V45.0651H193.824C196.094 45.0651 197.237 45.75 197.322 47.0264C197.462 47.916 197.462 48.8221 197.322 49.7117C197.192 50.1141 196.954 50.4726 196.633 50.7474C196.311 51.0222 195.921 51.2025 195.503 51.2683H195.278C194.99 51.2943 194.699 51.2786 194.415 51.2216C194.075 51.1782 193.739 51.1027 193.413 50.9959V45.6877ZM197.688 61.8925C197.781 63.4492 197.097 64.3053 195.457 64.2275C195.353 64.1971 195.246 64.1814 195.138 64.1808H194.687C194.552 64.151 194.414 64.1353 194.275 64.1341C194.001 64.105 193.728 64.0582 193.459 63.994L193.545 57.7674V57.3082C194.23 57.1255 194.954 57.1492 195.626 57.3762C196.298 57.6032 196.888 58.0236 197.322 58.5846C197.462 58.678 197.555 58.9037 197.688 59.3163V61.8925Z" fill="url(#paint4_linear_0_1948)"/>
<path d="M155.093 54.6717L155 54.9441L154.907 57.8161C154.871 58.0278 154.791 58.2298 154.674 58.4093C154.556 58.5887 154.403 58.7419 154.223 58.8591C154.065 58.9012 153.913 58.964 153.772 59.0459C152.497 59.2716 151.813 58.8591 151.588 57.7694L151.316 52.578L151.269 52.1266L151.355 51.9865V51.9398L161.281 53.582L161.374 40.6073C161.035 38.9155 160.227 37.3536 159.042 36.1008C158.012 34.9108 156.664 34.0411 155.156 33.5946C155.082 33.5434 155.004 33.4991 154.922 33.4623C154.65 33.3689 154.472 33.3689 154.378 33.3222C152.925 33.1898 151.331 33.0964 149.598 33.0964C149.233 33.0791 148.867 33.1105 148.51 33.1898C148.437 33.2238 148.357 33.2398 148.277 33.2365C147.642 33.3974 147.05 33.6972 146.545 34.1144C146.039 34.5316 145.633 35.0559 145.354 35.6494C144.86 36.6572 144.507 37.7284 144.305 38.8327V58.1353C144.552 59.5788 145.027 60.9739 145.712 62.2682C146.413 63.5298 147.414 64.5991 148.626 65.3815C149.865 66.288 151.333 66.8274 152.863 66.9381C154.3 67.1783 155.772 67.1173 157.184 66.7591C158.166 66.601 159.08 66.1571 159.812 65.4827C159.998 65.2959 160.185 65.1013 160.371 64.8911C160.475 64.8146 160.567 64.7227 160.643 64.6187C160.962 64.1673 161.281 63.7548 161.599 63.3423V55.559L161.506 55.4656L155.093 54.6717ZM151.448 41.518C151.495 41.4246 151.495 41.4246 151.495 41.518C151.673 41.0198 152.179 40.7007 153.049 40.5606C153.92 40.4205 154.549 41.0198 154.961 42.2963L155.008 46.3903V46.5693L154.098 46.437L151.176 45.9233C151.129 43.2925 151.269 41.8838 151.448 41.518Z" fill="url(#paint5_linear_0_1948)"/>
<path d="M160.37 64.8672C160.37 64.9139 160.323 64.9606 160.323 65.0073L160.37 64.8672Z" fill="url(#paint6_linear_0_1948)"/>
<path d="M160.37 64.8672C160.37 64.9139 160.323 64.9606 160.323 65.0073L160.37 64.8672Z" fill="url(#paint7_linear_0_1948)"/>
<path d="M159.81 65.4587L159.911 65.3731C160.051 65.2797 160.183 65.1007 160.323 65.0073C160.323 64.9606 160.369 64.9139 160.369 64.8672C160.183 65.0773 159.996 65.2719 159.81 65.4587Z" fill="url(#paint8_linear_0_1948)"/>
<path d="M159.81 65.4587L159.911 65.3731C160.051 65.2797 160.183 65.1007 160.323 65.0073C160.323 64.9606 160.369 64.9139 160.369 64.8672C160.183 65.0773 159.996 65.2719 159.81 65.4587Z" fill="url(#paint9_linear_0_1948)"/>
<path d="M159.81 65.4587L159.911 65.3731C160.051 65.2797 160.183 65.1007 160.323 65.0073C160.323 64.9606 160.369 64.9139 160.369 64.8672C160.183 65.0773 159.996 65.2719 159.81 65.4587Z" fill="url(#paint10_linear_0_1948)"/>
<path d="M181.885 60.7684C181.885 60.5426 181.752 60.2702 181.706 59.9044L181.527 52.7983V47.7002C181.574 47.4278 181.667 47.1554 181.714 46.9219C181.837 46.4083 182.07 45.9276 182.398 45.5131L182.483 38.0023L165.328 36.002V43.1937C166.012 43.7463 166.331 44.9761 166.331 46.7507C166.335 49.5021 166.182 52.2515 165.873 54.9854C165.554 58.628 164.963 60.4337 164.194 60.3091L164.054 70.9645L169.65 71.8751C169.632 71.1547 169.821 70.4443 170.194 69.8281C170.333 69.6509 170.505 69.5031 170.701 69.3935C170.897 69.2839 171.114 69.2147 171.337 69.1899C171.594 69.152 171.854 69.1363 172.114 69.1432H172.573C173.494 69.1521 174.394 69.4219 175.169 69.9215C175.634 70.3992 175.95 71.0024 176.078 71.6572C176.191 72.0276 176.266 72.4082 176.304 72.7935L182.903 73.3851L182.677 62.683C182.325 62.0852 182.058 61.4406 181.885 60.7684ZM174.648 61.5467L173.661 61.4844L170.699 61.1653L172.2 44.727L172.293 43.9098L174.702 44.1355L174.648 61.5467Z" fill="url(#paint11_linear_0_1948)"/>
<path d="M132.699 57.2677C132.606 57.3533 132.606 57.4934 132.559 57.6258C132.409 58.02 132.137 58.3556 131.782 58.5831L131.688 58.6765L131.782 66.0473L131.867 66.2341L141.381 67.962L141.249 60.2254C140.985 59.9781 140.794 59.6631 140.697 59.3147C140.525 58.9058 140.405 58.477 140.34 58.0383L140.425 35.1866C140.472 35.0542 140.472 34.9608 140.518 34.8674C140.566 34.5425 140.641 34.2222 140.744 33.9101C140.81 33.57 140.968 33.2548 141.202 32.9995L141.249 24.7647L141.202 24.5779C140.153 24.3989 138.466 24.1265 136.057 23.6673C134.051 23.2626 132.505 23.0368 131.463 22.8501L128.097 41.2497L127.693 38.8369L125.19 22.0406L125.05 21.9005L114.72 19.8457L114.674 19.9858L114.72 27.6757C115.108 28.0804 115.377 28.5838 115.498 29.1312C115.511 29.2874 115.542 29.4415 115.591 29.5904V53.485C115.601 53.9259 115.507 54.363 115.319 54.7615C115.252 54.9336 115.147 55.0885 115.013 55.215C114.878 55.3416 114.717 55.4366 114.542 55.4931L114.456 63.0896L114.588 63.2297C118.552 63.8212 121.281 64.2727 122.734 64.4984V57.221L122.781 56.9486C122.295 56.5607 121.971 56.0059 121.871 55.3919L121.646 41.9191V37.1479L126.193 64.8642L126.426 65.051C126.558 65.051 127.149 65.1366 128.245 65.2767L131.657 44.1529L132.435 39.374L132.699 57.2677Z" fill="url(#paint12_linear_0_1948)"/>
<path d="M96.0963 46.5691C95.9418 46.5036 95.8088 46.3959 95.7126 46.2582C95.6164 46.1206 95.5608 45.9586 95.5522 45.7908C95.4558 45.1885 95.4401 44.576 95.5056 43.9695V31.5163C95.3735 30.1303 95.0055 28.7772 94.4174 27.5157C94.1012 26.8763 93.6868 26.2907 93.1892 25.78C92.9769 25.5821 92.7795 25.3688 92.5985 25.1418L92.5052 25.0639C92.4508 25.025 92.412 24.9939 92.412 24.9628C92.3001 24.8846 92.1769 24.8242 92.0466 24.7837C90.6192 23.868 88.9616 23.3767 87.2663 23.3672C85.8442 23.4255 84.4495 23.778 83.1701 24.4024C81.6155 25.0873 80.8382 25.7255 80.6672 26.3171V33.2364L86.3569 33.5944V33.3687C86.3103 32.8706 86.3103 32.4114 86.3103 32.0066C86.3459 31.8881 86.3617 31.7645 86.3569 31.6408C86.475 31.0969 86.7083 30.5846 87.0409 30.1386C87.2014 30 87.3858 29.8919 87.585 29.8195C87.8763 29.7618 88.1784 29.7968 88.4488 29.9196C88.7192 30.0425 88.9445 30.247 89.093 30.5045C89.093 30.5512 89.093 30.5901 89.1396 30.5901C89.2181 30.9525 89.2777 31.3189 89.3184 31.6875V34.147C89.1785 34.1859 88.5411 34.4661 87.4063 34.9254H87.3596C87.0409 35.0655 86.5823 35.1978 86.1315 35.4235C85.0161 35.8253 83.9475 36.3472 82.9446 36.9801C82.626 37.2993 82.3073 37.525 81.9886 37.8441C80.7272 39.0127 79.976 40.6316 79.8977 42.3506C79.7583 43.549 79.8028 44.7616 80.0298 45.9465C80.2104 46.738 80.4388 47.5177 80.7138 48.2815C80.8538 48.5539 80.947 48.7874 81.0792 49.0131C81.2113 49.3354 81.3809 49.6411 81.5844 49.9237C81.6294 50.0095 81.6901 50.086 81.7632 50.1495C81.8887 50.3774 82.0577 50.5784 82.2606 50.741L82.3073 50.8344C82.8249 51.3766 83.4895 51.7554 84.2194 51.924C85.0648 52.0807 85.936 52.02 86.7517 51.7478C87.5673 51.4755 88.3006 51.0006 88.8831 50.3674C89.0084 50.2063 89.1461 50.0554 89.2951 49.916L89.707 49.3711C89.7478 49.3475 89.7816 49.3135 89.8048 49.2724C89.8281 49.2313 89.8399 49.1848 89.8392 49.1376V51.7372L95.9875 52.2354L96.0963 46.5691ZM89.4971 41.1987L89.4505 43.7905C89.1039 44.1455 88.7238 44.4661 88.3157 44.7479C88.1564 44.8882 87.967 44.99 87.7621 45.0453C87.5572 45.1007 87.3424 45.1081 87.1342 45.067C87.0409 45.067 87.0409 45.067 86.9943 45.0203C86.7075 44.9094 86.4572 44.7207 86.2714 44.4754C86.1214 44.3102 86.0073 44.1156 85.9364 43.9039C85.8655 43.6922 85.8393 43.4681 85.8595 43.2457C85.8387 42.7741 85.9574 42.3068 86.2008 41.9025C86.4442 41.4982 86.8013 41.1748 87.2275 40.973C87.955 40.6137 88.715 40.3244 89.4971 40.109V41.1987Z" fill="url(#paint13_linear_0_1948)"/>
<path d="M51.0838 51.2594C51.4466 51.2031 51.8127 51.1719 52.1798 51.166C53.952 50.987 55.6853 50.8469 57.4575 50.7068C59.2297 50.5667 60.9164 50.6212 62.6498 50.6679C64.3831 50.7146 66.1553 50.7068 67.9275 50.7535C69.5676 50.7535 71.2932 50.8469 72.9799 50.8936C74.5345 50.9403 76.089 51.0726 77.7136 51.166V44.9783C77.5204 44.603 77.3817 44.202 77.3016 43.7875V31.7312C77.3522 31.0591 77.6451 30.4285 78.1255 29.9566V23.2162C78.0789 23.1228 78.0789 23.0761 77.9856 23.0761H70.1584L70.1117 23.3486V23.7533C70.0651 23.7533 70.0651 23.7533 70.1117 23.8C70.0651 25.0764 70.0184 26.9834 70.0184 29.5363C70.3074 29.7421 70.5274 30.0307 70.6495 30.3641C70.7716 30.6975 70.7901 31.0601 70.7025 31.4043L70.6558 44.4724H67.9275V31.4587C67.8928 30.9032 68.0522 30.3528 68.3784 29.9021C68.491 29.7996 68.6133 29.7083 68.7437 29.6297V29.3573C68.7437 26.6253 68.6971 24.6172 68.6582 23.3486V23.0684H60.5511V29.8554C60.9165 29.9488 61.1419 30.3068 61.2818 30.9917V44.5658C60.419 44.5658 59.7272 44.5658 59.1442 44.5191H58.367V31.1318C58.3671 30.8542 58.3984 30.5775 58.4602 30.3068C58.5236 29.9707 58.6989 29.6661 58.9577 29.4429V23.2162L50.8584 23.3486V30.0422C51.0838 30.0422 51.317 30.2679 51.4958 30.587C51.7047 31.0589 51.798 31.5739 51.7678 32.0892V43.157C51.8156 43.391 51.7972 43.6337 51.7148 43.8578C51.6325 44.0819 51.4893 44.2785 51.3014 44.4257C51.1875 44.507 51.0808 44.5981 50.9828 44.6981V51.2594L51.076 51.345L51.0838 51.2594Z" fill="url(#paint14_linear_0_1948)"/>
<path d="M30.47 50.389C30.3767 50.2567 30.33 50.1633 30.2445 50.031C29.8895 49.458 29.6419 48.825 29.5139 48.163V24.8599C29.6927 23.3966 30.1046 22.486 30.6487 22.1279V14.3447V14.0645L20.2098 16.4384L17.979 32.7832L17.7458 34.5111L14.6367 17.9483V17.9016L3.6148 21.443V29.3197H3.88685C4.03729 29.377 4.17279 29.4677 4.28319 29.585C4.39358 29.7023 4.47599 29.8431 4.52422 29.9968C4.67147 30.3096 4.72027 30.6597 4.66413 31.0009V52.5761C4.6239 52.8178 4.60827 53.0629 4.61749 53.3078C4.64848 54.7627 4.27148 56.1972 3.5293 57.4485V65.2785L11.4032 62.4531L11.4887 62.2274V54.5375C11.4032 54.4441 11.3565 54.3507 11.3099 54.304C11.0216 53.8521 10.8481 53.3364 10.8047 52.8018C10.8047 52.257 10.7658 51.7589 10.7192 51.2452L10.8047 33.6238L12.2193 43.4152L14.8155 61.488C14.8621 61.488 14.901 61.5347 14.9476 61.5736L16.953 60.7953L22.1841 29.4987L21.8654 38.8386L21.64 48.4432C21.6029 48.8406 21.5432 49.2356 21.4612 49.6263C21.4146 49.6263 21.4146 49.673 21.4146 49.7664C21.3545 50.3687 21.1832 50.9546 20.9094 51.4943C20.8048 51.6558 20.6851 51.8069 20.5518 51.9457C20.4661 52.0186 20.3722 52.0813 20.272 52.1325C20.0925 54.767 20.0484 57.409 20.1399 60.0481L20.2331 60.2349L30.47 57.8221V50.389Z" fill="url(#paint15_linear_0_1948)"/>
<path d="M20.1406 60.1792L20.2339 60.2259L20.1406 60.0391V60.1792Z" fill="url(#paint16_linear_0_1948)"/>
<path d="M20.1398 60.2268H20.2104L20.1162 60.1797L20.1398 60.2268Z" fill="url(#paint17_linear_0_1948)"/>
<path d="M49.4904 45.3355C49.0526 44.9083 48.7383 44.3704 48.5809 43.7789C48.575 43.6402 48.5461 43.5034 48.4954 43.3742V29.2709L48.4488 28.9517C48.2891 28.0557 47.9375 27.205 47.4182 26.458C46.899 25.711 46.2243 25.0854 45.4407 24.6242C45.3254 24.5627 45.2184 24.4869 45.122 24.3985C44.9899 24.3518 44.85 24.2584 44.7178 24.2195L44.4458 24.0794C44.3642 24.0426 44.2861 23.9983 44.2126 23.9471H44.1271C43.8654 23.8192 43.5885 23.725 43.3032 23.6669C43.1411 23.6195 42.9742 23.5908 42.8057 23.5813L42.4404 23.4879C42.3655 23.4962 42.2899 23.4962 42.215 23.4879C41.7736 23.4579 41.3302 23.4788 40.8936 23.5501C40.6787 23.5611 40.4653 23.5924 40.2562 23.6435C38.6313 24.0341 37.089 24.7115 35.7013 25.6438C34.8611 26.2414 34.163 27.0175 33.6571 27.9166L33.5638 28.0567V34.6569L33.6571 34.976L39.4789 34.1121C39.4789 33.4738 39.4323 32.8823 39.4323 32.3375C39.4327 31.8773 39.4795 31.4183 39.5722 30.9676C39.6362 30.6501 39.8068 30.3642 40.0557 30.1574C40.3047 29.9507 40.6168 29.8355 40.9402 29.8313C41.0724 29.7379 41.3056 29.7846 41.6242 29.9247C41.8488 30.0771 42.035 30.2796 42.1683 30.5162C42.215 30.6018 42.2538 30.6952 42.3005 30.7886L42.4404 33.7462C41.5284 34.3845 40.619 34.976 39.7121 35.5208C39.2535 35.7932 38.7561 36.1124 38.2042 36.4782C37.4269 37.023 36.6496 37.7079 35.8723 38.3851C34.62 39.4945 33.7314 40.9567 33.3229 42.5803C32.9132 44.2148 32.7586 45.903 32.8643 47.5849C32.8565 47.9203 32.8721 48.2558 32.9109 48.589C32.9109 48.6279 32.9109 48.6279 32.9575 48.7213C33.2212 49.9904 33.8383 51.1589 34.7375 52.0914C35.9656 53.3679 37.4191 53.5469 39.1059 52.7297C40.7367 51.9286 42.0034 50.5378 42.6503 48.838V50.8383L42.6969 51.749V51.8424L49.5215 51.1107L49.4904 45.3355ZM42.3005 41.3349V43.5143L42.215 43.8334C41.9451 44.0527 41.7139 44.3158 41.531 44.6117C41.4187 44.7934 41.2652 44.946 41.0828 45.0569C40.9004 45.1678 40.6944 45.234 40.4816 45.2499H40.2096C39.8829 45.2169 39.5779 45.071 39.3468 44.8374C39.2041 44.7042 39.0931 44.5407 39.0218 44.3589C38.9505 44.177 38.9208 43.9815 38.9348 43.7867C38.9348 42.6503 39.7121 41.5607 41.1657 40.471C41.4993 40.2188 41.8499 39.99 42.215 39.7861H42.3005V41.3349Z" fill="url(#paint18_linear_0_1948)"/>
<path d="M42.2148 23.4746C42.2898 23.4829 42.3653 23.4829 42.4403 23.4746H42.2148Z" fill="url(#paint19_linear_0_1948)"/>
<path d="M42.2148 23.4746C42.2898 23.4829 42.3653 23.4829 42.4403 23.4746H42.2148Z" fill="url(#paint20_linear_0_1948)"/>
<path d="M42.2148 23.4746C42.2898 23.4829 42.3653 23.4829 42.4403 23.4746H42.2148Z" fill="url(#paint21_linear_0_1948)"/>
<path d="M106.099 33.3675V37.3603L106.145 37.4926C106.417 37.5393 106.596 37.9519 106.643 38.6368V38.7224L106.278 39.2672L106.099 39.5863L104.412 42.0303H104.28V38.6523C104.28 38.5122 104.373 38.3722 104.412 38.0997C104.449 37.9591 104.518 37.829 104.614 37.7196C104.71 37.6102 104.83 37.5246 104.964 37.4693L105.049 37.1891V33.0951C102.275 32.6437 100.681 32.4102 100.277 32.4102L99.9116 32.4569V36.6443L99.9971 36.7844C100.073 36.8471 100.136 36.9237 100.184 37.0101C100.273 37.1498 100.334 37.3059 100.362 37.4693C100.355 37.5752 100.371 37.6815 100.409 37.7806V45.0658L100.362 45.2915V45.3849C100.357 45.5658 100.295 45.7403 100.184 45.883C100.105 46.0677 99.9977 46.2385 99.865 46.3889C99.865 46.4356 99.8184 46.4356 99.8184 46.4745L99.865 50.3039L99.8184 50.5296C100.137 50.5763 100.953 50.7087 102.368 50.8954C102.912 50.9888 103.456 51.0745 103.922 51.1212C104.298 51.1875 104.677 51.2343 105.057 51.2613V47.4319L105.018 47.2996C104.739 47.1128 104.606 46.708 104.513 46.1165C104.471 45.9224 104.455 45.7234 104.467 45.525L104.42 45.2915C104.606 45.0658 104.972 44.6143 105.562 43.836C105.835 43.4313 106.153 43.0577 106.519 42.5206H106.651V46.1632C106.643 46.6462 106.467 47.1114 106.153 47.4786L106.107 47.572V51.4636L106.332 51.557L111.206 52.4599V48.5682C111.066 48.3815 110.98 48.2491 110.887 48.109C110.823 47.9348 110.807 47.7467 110.84 47.5642L110.747 39.9599C110.794 39.4151 110.98 39.0493 111.206 38.9637V34.0524C108.477 33.5932 106.791 33.3208 106.332 33.3208C106.255 33.3414 106.177 33.357 106.099 33.3675Z" fill="url(#paint22_linear_0_1948)"/>
<path d="M264.518 24.9024H263.788C263.72 24.9024 263.654 24.8753 263.606 24.8272C263.558 24.779 263.531 24.7137 263.531 24.6455C263.531 24.5774 263.558 24.5121 263.606 24.4639C263.654 24.4158 263.72 24.3887 263.788 24.3887H265.879C265.947 24.3887 266.012 24.4158 266.06 24.4639C266.108 24.5121 266.135 24.5774 266.135 24.6455C266.135 24.7137 266.108 24.779 266.06 24.8272C266.012 24.8753 265.947 24.9024 265.879 24.9024H265.148V27.2374C265.155 27.2829 265.152 27.3295 265.14 27.3739C265.127 27.4182 265.105 27.4593 265.075 27.4944C265.046 27.5294 265.008 27.5576 264.967 27.5769C264.925 27.5962 264.879 27.6062 264.833 27.6062C264.787 27.6062 264.742 27.5962 264.7 27.5769C264.658 27.5576 264.621 27.5294 264.591 27.4944C264.561 27.4593 264.539 27.4182 264.527 27.3739C264.514 27.3295 264.511 27.2829 264.518 27.2374V24.9024ZM266.741 24.9024C266.741 24.5444 266.905 24.3887 267.223 24.3887C267.329 24.3752 267.437 24.3968 267.53 24.4502C267.622 24.5036 267.695 24.5859 267.736 24.6845L268.514 26.6925L269.291 24.6845C269.332 24.5859 269.405 24.5036 269.498 24.4502C269.59 24.3968 269.698 24.3752 269.804 24.3887C270.123 24.3887 270.286 24.5444 270.286 24.9024V27.323C270.287 27.3615 270.28 27.3997 270.266 27.4356C270.252 27.4714 270.231 27.5041 270.204 27.5317C270.178 27.5592 270.146 27.5812 270.11 27.5961C270.075 27.6111 270.037 27.6188 269.998 27.6188C269.92 27.6188 269.845 27.5876 269.789 27.5321C269.734 27.4767 269.703 27.4014 269.703 27.323V25.0814L268.879 27.2996C268.801 27.5098 268.708 27.5876 268.545 27.5876C268.381 27.5876 268.288 27.5098 268.21 27.2996L267.379 25.0814V27.2919C267.379 27.3703 267.348 27.4455 267.292 27.501C267.237 27.5565 267.162 27.5876 267.083 27.5876C267.045 27.5876 267.007 27.5799 266.972 27.565C266.936 27.55 266.904 27.5281 266.877 27.5005C266.85 27.473 266.829 27.4403 266.815 27.4045C266.801 27.3686 266.795 27.3303 266.796 27.2919L266.741 24.9024Z" fill="white"/>
<path d="M106.769 6.29432H108.323C108.059 5.38367 107.795 4.45746 107.546 3.53125C107.266 4.43411 107.017 5.3681 106.769 6.29432Z" fill="white"/>
<path d="M130.584 6.01951H132.139C131.835 5.24118 131.657 4.71971 131.361 3.93359L130.584 6.01951Z" fill="white"/>
<path d="M151.461 3.18168H151.399C151.128 3.18674 150.86 3.24537 150.612 3.35421C150.363 3.46306 150.139 3.61998 149.951 3.81596C149.763 4.01194 149.616 4.24312 149.517 4.49624C149.419 4.74936 149.372 5.01943 149.378 5.29095C149.37 5.56414 149.417 5.83612 149.518 6.09034C149.618 6.34456 149.769 6.57572 149.961 6.76977C150.146 6.96455 150.369 7.1195 150.617 7.2252C150.864 7.3309 151.13 7.38516 151.399 7.38465H151.461C151.717 7.39343 151.971 7.34805 152.209 7.25148C152.446 7.15492 152.66 7.00934 152.837 6.82426C153.036 6.61894 153.19 6.3747 153.29 6.10685C153.391 5.83899 153.435 5.55328 153.42 5.2676C153.434 4.98202 153.389 4.69657 153.289 4.42885C153.189 4.16113 153.035 3.9168 152.837 3.71094C152.656 3.53226 152.441 3.39297 152.204 3.30187C151.967 3.21077 151.714 3.16985 151.461 3.18168Z" fill="white"/>
<path d="M164.272 2.86358H164.186L162.981 2.91806V7.66586L164.186 7.72035H164.272C164.51 7.72516 164.745 7.67166 164.958 7.5645C165.171 7.45733 165.354 7.29975 165.492 7.10547C165.858 6.57391 166.038 5.93651 166.005 5.29196C166.038 4.64742 165.858 4.01002 165.492 3.47846C165.354 3.28417 165.171 3.12659 164.958 3.01943C164.745 2.91227 164.51 2.85877 164.272 2.86358Z" fill="white"/>
<path d="M158.435 3.05664L157.176 3.11112V5.01803H158.404C158.511 5.01655 158.616 4.98967 158.711 4.93961C158.805 4.88954 158.887 4.81772 158.948 4.73005C159.106 4.52575 159.189 4.27255 159.181 4.01398C159.19 3.76237 159.107 3.5161 158.948 3.32127C158.889 3.23986 158.812 3.17347 158.723 3.12749C158.634 3.08151 158.535 3.05723 158.435 3.05664Z" fill="white"/>
<path d="M104.304 10.7528C104.131 10.7519 103.961 10.7118 103.806 10.6356C103.651 10.5593 103.515 10.4488 103.409 10.3125C103.303 10.1762 103.229 10.0175 103.192 9.8484C103.156 9.67931 103.159 9.50421 103.2 9.33626C103.977 6.44867 104.801 3.5922 105.609 0.829136C105.688 0.600763 105.835 0.402762 106.032 0.2631C106.229 0.123439 106.464 0.0491782 106.705 0.0508075H106.783L108.454 0.167557C108.682 0.181593 108.9 0.263082 109.082 0.401669C109.263 0.540256 109.399 0.729684 109.473 0.945885C109.713 1.78648 109.97 2.61929 110.211 3.44432H110.328V1.44401C110.329 1.28834 110.361 1.13446 110.422 0.991441C110.484 0.848419 110.573 0.719137 110.685 0.611204C110.896 0.414864 111.174 0.30634 111.462 0.307656H111.525L112.558 0.369922C112.74 0.379964 112.916 0.433222 113.073 0.525273C113.23 0.617323 113.363 0.745509 113.46 0.899185C113.701 1.29613 113.95 1.67751 114.198 2.07446L114.299 2.24569V1.66195C114.3 1.5073 114.332 1.35437 114.393 1.21251C114.455 1.07064 114.544 0.942839 114.657 0.836919C114.866 0.636372 115.145 0.524782 115.434 0.525588H115.496L116.849 0.587854C117.061 0.595626 117.267 0.666021 117.44 0.790219C117.611 0.68824 117.807 0.634467 118.007 0.634554H118.147L119.5 0.69682C119.713 0.704308 119.921 0.771726 120.098 0.891402C120.27 0.790469 120.466 0.736776 120.665 0.735736H120.704L122.103 0.790219C122.292 0.796304 122.476 0.849302 122.639 0.944425C122.801 1.03955 122.938 1.1738 123.036 1.33505C123.339 1.84096 123.666 2.36244 123.992 2.89171L124.039 2.96954L124.093 2.89171L125.049 1.41288C125.153 1.25572 125.294 1.1266 125.459 1.03699C125.625 0.947381 125.81 0.900045 125.998 0.899185L127.389 0.938102C127.686 0.944212 127.969 1.06663 128.176 1.27908C128.384 1.49153 128.501 1.77708 128.5 2.07446V3.71673H128.609C128.868 3.05775 129.127 2.38839 129.387 1.70865C129.469 1.49483 129.614 1.31107 129.802 1.18178C129.991 1.05248 130.215 0.983783 130.444 0.984801H132.123C132.35 0.98809 132.572 1.05951 132.759 1.18988C132.946 1.32025 133.09 1.50362 133.172 1.71643C133.374 2.25348 133.592 2.79831 133.802 3.3587L133.856 3.47545L133.91 3.3587C134.129 2.9006 134.426 2.48439 134.789 2.12894C135.644 1.30779 136.79 0.859956 137.976 0.883619C138.717 0.877861 139.448 1.05425 140.105 1.39732C140.496 1.60042 140.852 1.86299 141.162 2.17564L141.201 2.21456V2.17564L141.271 2.09781C141.709 1.67603 142.227 1.34645 142.795 1.12855C143.362 0.910643 143.967 0.808833 144.575 0.829136H144.683C145.399 0.824804 146.104 0.998658 146.736 1.33505C147.175 1.55961 147.568 1.86603 147.894 2.23791L147.94 2.28461V2.23791L148.119 2.05111C148.969 1.17013 150.13 0.658617 151.353 0.62677H151.57C152.678 0.615378 153.746 1.03703 154.547 1.80205L154.64 1.89545V1.70865C154.638 1.41847 154.747 1.1385 154.946 0.926892C155.144 0.715281 155.416 0.588287 155.705 0.572287L158.34 0.432188H158.566C159.24 0.425254 159.896 0.650594 160.423 1.07042L160.493 1.1249V1.04707C160.566 0.83148 160.7 0.642301 160.88 0.503673C161.06 0.365045 161.277 0.283255 161.504 0.268739C162.553 0.206473 163.058 0.167557 164.123 0.0897239H164.411C164.981 0.0860723 165.544 0.216593 166.054 0.470762C166.565 0.724931 167.008 1.09563 167.349 1.55298C168.14 2.63076 168.546 3.94425 168.499 5.28117C168.546 6.6181 168.14 7.93158 167.349 9.00937C167.012 9.47744 166.568 9.85846 166.054 10.121C165.541 10.3835 164.972 10.5201 164.395 10.5193H164.1L161.488 10.3481L159.343 10.2002C159.144 10.1881 158.951 10.1234 158.784 10.0126C158.618 9.90194 158.483 9.74916 158.395 9.56976L158.2 9.1806L158.154 9.30513C158.099 9.47418 158.003 9.62675 157.874 9.74878C157.668 9.95572 157.389 10.0731 157.097 10.0757H157.011L155.705 10.0056C155.415 9.98969 155.142 9.86296 154.943 9.65156C154.743 9.44015 154.632 9.16016 154.633 8.86927V8.69025L154.539 8.78365C153.738 9.5433 152.674 9.96423 151.57 9.95893H151.368C150.157 9.92721 149.006 9.42475 148.158 8.55793L147.979 8.37114V8.31665L147.933 8.37114C147.606 8.73847 147.216 9.04425 146.782 9.274C146.149 9.61226 145.44 9.7862 144.722 9.77991H144.575C143.383 9.77856 142.24 9.30577 141.396 8.46453L141.333 8.39449L141.287 8.34779L141.248 8.39449C140.941 8.70696 140.587 8.96956 140.199 9.17281C139.541 9.51588 138.81 9.69227 138.069 9.68651C137.218 9.69775 136.381 9.47135 135.651 9.03271H135.605V9.07941C135.502 9.23248 135.363 9.35793 135.2 9.44477C135.038 9.53162 134.856 9.57721 134.672 9.57755H133.203C132.97 9.57945 132.742 9.50952 132.55 9.37723C132.358 9.24495 132.212 9.05673 132.13 8.83813L131.99 8.46453H130.84L130.7 8.86148C130.624 9.08364 130.482 9.27725 130.293 9.41636C130.104 9.55547 129.877 9.63343 129.643 9.63981L126.176 9.70986C126.017 9.72534 125.857 9.70686 125.706 9.65563C125.555 9.60439 125.416 9.52158 125.299 9.41268C125.182 9.30377 125.09 9.17126 125.028 9.02391C124.966 8.87655 124.936 8.71772 124.94 8.55793V8.22325L124.855 8.2933C124.66 8.44804 124.42 8.53299 124.171 8.53458H123.992C123.735 8.53675 123.484 8.44864 123.285 8.28552L123.192 8.21547V8.6669C123.194 8.96224 123.08 9.24666 122.875 9.45911C122.67 9.67157 122.39 9.79512 122.096 9.80326L120.743 9.85774H120.697C120.497 9.8567 120.301 9.80301 120.129 9.70208C119.954 9.82731 119.746 9.89773 119.531 9.90444L118.178 9.95893H118.131C117.932 9.96176 117.736 9.91066 117.564 9.81104H117.502C117.326 9.92865 117.122 9.99839 116.911 10.0134L115.815 10.0368H115.761C115.576 10.0353 115.395 9.99008 115.232 9.90484C115.068 9.8196 114.927 9.69677 114.82 9.54641L114.043 8.41005L113.934 8.25439V9.03271C113.933 9.32306 113.821 9.602 113.622 9.81301C113.423 10.024 113.151 10.1513 112.861 10.1691L109.379 10.3792H109.309C109.068 10.3809 108.833 10.3066 108.636 10.1669C108.439 10.0273 108.292 9.82927 108.213 9.60089L108.042 9.02493L107.11 9.07163H107.071C107.071 9.07163 106.946 9.53084 106.876 9.80326C106.815 10.0322 106.684 10.2363 106.502 10.387C106.319 10.5377 106.094 10.6275 105.858 10.6439L104.405 10.7528H104.304ZM106.705 0.953668C106.666 0.954014 106.629 0.967134 106.598 0.991024C106.567 1.01491 106.545 1.04826 106.534 1.08598C105.71 3.83348 104.933 6.68995 104.156 9.56976C104.149 9.59681 104.148 9.62521 104.153 9.65266C104.159 9.68011 104.171 9.70585 104.188 9.72781C104.206 9.74977 104.228 9.76733 104.253 9.77908C104.279 9.79084 104.307 9.79645 104.335 9.79548L105.796 9.68651C105.834 9.68452 105.87 9.67065 105.899 9.64688C105.928 9.62312 105.949 9.59067 105.959 9.55419C106.107 8.97823 106.192 8.67468 106.332 8.14542L108.804 8.03645C108.944 8.51902 109.022 8.81478 109.177 9.31291C109.187 9.35063 109.21 9.38398 109.24 9.40787C109.271 9.43176 109.309 9.44488 109.348 9.44523L110.825 9.35183C110.852 9.34962 110.878 9.34135 110.901 9.32765C110.924 9.31395 110.944 9.29517 110.959 9.27272C110.974 9.25026 110.984 9.22471 110.987 9.19797C110.991 9.17124 110.989 9.14401 110.98 9.11833C110.203 6.53428 109.356 3.8724 108.571 1.20273C108.561 1.16625 108.54 1.13381 108.511 1.11005C108.481 1.08628 108.445 1.07241 108.408 1.07042L106.729 0.953668H106.705ZM164.395 1.00815H164.17C163.121 1.08598 162.615 1.1249 161.551 1.18717C161.506 1.19107 161.464 1.21164 161.434 1.2448C161.404 1.27796 161.387 1.32128 161.387 1.36618V9.20395C161.387 9.24885 161.404 9.29217 161.434 9.32533C161.464 9.35849 161.506 9.37906 161.551 9.38296L164.17 9.55419H164.395C164.826 9.55567 165.251 9.45316 165.634 9.25535C166.017 9.05755 166.347 8.77027 166.595 8.41784C167.247 7.51405 167.581 6.41887 167.543 5.30452C167.578 4.19056 167.245 3.09631 166.595 2.19121C166.35 1.83155 166.023 1.53625 165.64 1.33032C165.257 1.12438 164.83 1.01387 164.395 1.00815ZM157.944 6.59655C158.449 7.57724 158.721 8.1065 159.234 9.14946C159.246 9.17683 159.266 9.20018 159.29 9.21674C159.315 9.2333 159.344 9.24237 159.374 9.24286L160.781 9.32848C160.809 9.32792 160.836 9.32053 160.861 9.30697C160.885 9.2934 160.906 9.27406 160.921 9.25065C160.938 9.22404 160.948 9.19293 160.948 9.16114C160.948 9.12934 160.938 9.09824 160.921 9.07163C160.369 7.92749 160.081 7.35153 159.537 6.28522C159.893 6.08546 160.191 5.79561 160.4 5.44462C160.651 5.01468 160.782 4.52574 160.781 4.02806C160.821 3.32289 160.584 2.62996 160.12 2.09781C159.929 1.87226 159.691 1.69131 159.422 1.56763C159.154 1.44394 158.861 1.3805 158.566 1.38175H158.434L155.791 1.52185C155.768 1.52182 155.745 1.5265 155.724 1.53558C155.702 1.54467 155.683 1.55799 155.667 1.57472C155.651 1.59145 155.639 1.61126 155.631 1.63294C155.622 1.65462 155.619 1.67773 155.62 1.70086V8.86148C155.62 8.90764 155.638 8.95203 155.669 8.98539C155.701 9.01875 155.745 9.03849 155.791 9.0405L157.089 9.11055C157.136 9.10863 157.18 9.08916 157.213 9.05599C157.246 9.02283 157.266 8.9784 157.268 8.93153V6.59655H157.944ZM116.973 8.8537V1.72421C116.972 1.67861 116.953 1.63522 116.922 1.60224C116.89 1.56926 116.848 1.54897 116.802 1.5452L115.45 1.48293C115.428 1.48217 115.407 1.48593 115.387 1.49397C115.367 1.50201 115.348 1.51416 115.333 1.52963C115.296 1.56396 115.274 1.61142 115.271 1.66195V5.49132C114.393 4.16038 113.514 2.78274 112.659 1.4051C112.644 1.38168 112.623 1.36235 112.599 1.34878C112.575 1.33521 112.547 1.32783 112.519 1.32727L111.486 1.265C111.44 1.26546 111.396 1.28199 111.361 1.3117C111.329 1.34842 111.31 1.39503 111.307 1.44401V9.1339C111.31 9.18288 111.329 9.2295 111.361 9.26621C111.396 9.29592 111.44 9.31246 111.486 9.31291L112.846 9.23508C112.891 9.23118 112.932 9.21061 112.962 9.17745C112.993 9.14429 113.009 9.10096 113.009 9.05606V5.05546C113.872 6.3864 114.75 7.70956 115.629 9.00158C115.646 9.02515 115.668 9.04445 115.693 9.05796C115.719 9.07147 115.747 9.07881 115.776 9.07941L116.81 9.02493C116.833 9.02493 116.855 9.0205 116.876 9.0119C116.896 9.00329 116.915 8.99068 116.931 8.97478C116.947 8.95888 116.959 8.94 116.968 8.91923C116.977 8.89845 116.981 8.87619 116.981 8.8537M151.57 1.55298H151.407C150.44 1.57901 149.524 1.98765 148.857 2.68934C148.52 3.02547 148.253 3.42596 148.073 3.86714C147.893 4.30831 147.803 4.78119 147.808 5.25782C147.804 5.73427 147.895 6.20677 148.075 6.64776C148.255 7.08875 148.521 7.48939 148.857 7.82631C149.524 8.528 150.44 8.93663 151.407 8.96267H151.57C152.018 8.96941 152.463 8.88454 152.878 8.71324C153.292 8.54194 153.667 8.28782 153.98 7.9664C154.325 7.60721 154.596 7.18274 154.776 6.71772C154.956 6.2527 155.042 5.75643 155.029 5.25782C155.042 4.75922 154.956 4.26295 154.776 3.79793C154.596 3.33291 154.325 2.90844 153.98 2.54924C153.667 2.22783 153.292 1.9737 152.878 1.8024C152.463 1.6311 152.018 1.54623 151.57 1.55298ZM118.085 1.55298C118.039 1.55198 117.994 1.5687 117.96 1.59968C117.943 1.61707 117.929 1.63771 117.92 1.66041C117.911 1.68312 117.906 1.70744 117.906 1.732V8.73695C117.909 8.78593 117.928 8.83255 117.96 8.86927C117.994 8.90025 118.039 8.91697 118.085 8.91597L119.437 8.86148C119.483 8.85771 119.525 8.83742 119.557 8.80444C119.588 8.77146 119.607 8.72807 119.608 8.68247V1.84096C119.607 1.79536 119.588 1.75197 119.557 1.71899C119.525 1.68601 119.483 1.66572 119.437 1.66195L118.085 1.60746V1.55298ZM120.712 1.65416C120.666 1.65742 120.622 1.67667 120.588 1.70865C120.555 1.74184 120.535 1.7863 120.533 1.83318V8.62798C120.533 8.65336 120.538 8.67853 120.549 8.70149C120.56 8.72446 120.576 8.74459 120.595 8.7603C120.611 8.77577 120.629 8.78792 120.649 8.79596C120.669 8.804 120.69 8.80776 120.712 8.807L122.072 8.7603C122.095 8.76032 122.118 8.75565 122.14 8.74656C122.161 8.73748 122.18 8.72416 122.196 8.70743C122.212 8.69069 122.224 8.67089 122.233 8.64921C122.241 8.62752 122.244 8.60442 122.243 8.58128V4.92314C122.764 5.77152 123.308 6.6199 123.845 7.46049C123.861 7.48656 123.884 7.50804 123.911 7.52299C123.939 7.53794 123.969 7.54588 124 7.54611H124.155C124.186 7.54687 124.215 7.53927 124.241 7.52416C124.267 7.50905 124.289 7.48702 124.303 7.46049C124.824 6.63546 125.36 5.78709 125.912 4.93871V8.55793C125.914 8.6048 125.933 8.64923 125.967 8.68239C126 8.71556 126.044 8.73503 126.091 8.73695H127.428C127.475 8.73695 127.521 8.71809 127.554 8.68452C127.588 8.65095 127.607 8.60541 127.607 8.55793V2.09003C127.607 2.04255 127.588 1.99702 127.554 1.96344C127.521 1.92987 127.475 1.91101 127.428 1.91101H126.036C126.006 1.91101 125.977 1.91805 125.95 1.93155C125.923 1.94506 125.899 1.96468 125.881 1.98884C125.267 2.93062 124.653 3.88018 124.07 4.80639C123.448 3.8257 122.834 2.84501 122.243 1.87988C122.23 1.85452 122.209 1.83324 122.185 1.8182C122.16 1.80317 122.132 1.79491 122.103 1.79426L120.704 1.73978L120.712 1.65416ZM144.699 1.732H144.575C144.107 1.72983 143.644 1.82017 143.212 1.99782C142.78 2.17548 142.387 2.43694 142.056 2.76717C141.727 3.09666 141.471 3.49096 141.302 3.92506C141.133 4.35917 141.057 4.82362 141.077 5.28896C141.063 5.75025 141.144 6.20944 141.316 6.63794C141.487 7.06643 141.744 7.45505 142.072 7.77961C142.742 8.43065 143.641 8.79135 144.575 8.78365H144.668C145.228 8.78877 145.781 8.65508 146.277 8.39449C146.787 8.13381 147.211 7.73107 147.497 7.23478C147.513 7.19203 147.513 7.14521 147.497 7.10246C147.492 7.06477 147.476 7.02947 147.451 7.00128L146.355 6.34748C146.327 6.33948 146.297 6.33948 146.269 6.34748C146.239 6.3498 146.209 6.35952 146.184 6.3758C146.158 6.39209 146.137 6.41443 146.121 6.44088C145.985 6.69407 145.773 6.89819 145.515 7.02463C145.242 7.16783 144.937 7.24008 144.629 7.23478C144.372 7.24097 144.115 7.19602 143.875 7.1025C143.635 7.00899 143.416 6.86877 143.23 6.68995C143.055 6.51028 142.919 6.29683 142.829 6.06264C142.74 5.82845 142.699 5.57843 142.709 5.32787C142.684 5.06683 142.715 4.80349 142.8 4.55527C142.884 4.30704 143.02 4.0796 143.199 3.88797C143.383 3.7063 143.602 3.56372 143.842 3.46876C144.083 3.3738 144.34 3.32843 144.598 3.33535H144.637C144.942 3.33199 145.244 3.40418 145.515 3.5455C145.773 3.68015 145.984 3.88889 146.121 4.14481C146.137 4.17127 146.158 4.19361 146.184 4.20989C146.209 4.22617 146.239 4.2359 146.269 4.23821C146.297 4.24622 146.327 4.24622 146.355 4.23821C146.813 3.9658 147.031 3.84127 147.451 3.57663C147.472 3.56544 147.49 3.54996 147.505 3.5312C147.52 3.51243 147.53 3.49079 147.536 3.46767C147.552 3.42492 147.552 3.3781 147.536 3.33535C147.25 2.83905 146.826 2.43632 146.316 2.17564C145.813 1.90969 145.252 1.77579 144.683 1.78648L144.699 1.732ZM138.061 1.8254C137.597 1.81433 137.136 1.89529 136.704 2.06361C136.272 2.23193 135.877 2.48427 135.543 2.80609C135.217 3.11966 134.96 3.4973 134.788 3.91523C134.615 4.33315 134.531 4.78233 134.54 5.23447C134.532 5.68643 134.617 6.13518 134.79 6.55291C134.962 6.97064 135.218 7.34843 135.543 7.66286C135.877 7.98468 136.272 8.23702 136.704 8.40534C137.136 8.57366 137.597 8.65462 138.061 8.64355C138.645 8.6474 139.222 8.50847 139.74 8.23882C140.24 7.9782 140.661 7.58857 140.96 7.11024C140.97 7.08809 140.975 7.06427 140.975 7.04019C140.975 7.01612 140.97 6.9923 140.96 6.97015C140.956 6.94645 140.947 6.92389 140.933 6.90383C140.92 6.88376 140.903 6.86661 140.883 6.8534L139.787 6.23073H139.701C139.671 6.22997 139.641 6.23757 139.615 6.25268C139.589 6.26779 139.568 6.28982 139.553 6.31635C139.412 6.56391 139.201 6.76427 138.947 6.89231C138.663 7.03565 138.348 7.10776 138.03 7.10246C137.774 7.1135 137.518 7.07304 137.278 6.98347C137.037 6.89391 136.817 6.75705 136.631 6.58098C136.454 6.40927 136.315 6.20182 136.224 5.97237C136.133 5.74292 136.091 5.49671 136.102 5.25004C136.091 5.00213 136.132 4.75458 136.223 4.52378C136.314 4.29298 136.453 4.08422 136.631 3.91132C136.816 3.73376 137.036 3.59595 137.277 3.50629C137.517 3.41663 137.774 3.377 138.03 3.38984C138.348 3.38454 138.663 3.45665 138.947 3.59998C139.2 3.73305 139.411 3.93551 139.553 4.18373C139.568 4.21026 139.589 4.23229 139.615 4.2474C139.641 4.26251 139.671 4.27011 139.701 4.26935C139.729 4.27627 139.759 4.27627 139.787 4.26935L140.883 3.65447C140.922 3.62622 140.95 3.58476 140.961 3.53761C140.973 3.49047 140.967 3.44079 140.945 3.39762C140.646 2.91651 140.221 2.52629 139.717 2.26904C139.201 2.00033 138.627 1.86142 138.045 1.86431L138.061 1.8254ZM130.514 1.91101C130.478 1.91189 130.443 1.92349 130.414 1.9443C130.385 1.96511 130.363 1.99419 130.35 2.02776C129.519 4.19151 128.71 6.32413 127.941 8.35557C127.929 8.38132 127.924 8.40915 127.924 8.43729C127.924 8.46544 127.929 8.49327 127.941 8.51902C127.956 8.5441 127.978 8.56456 128.004 8.57826C128.03 8.59196 128.059 8.59838 128.088 8.59685H129.55C129.586 8.59463 129.621 8.58261 129.651 8.56206C129.681 8.54151 129.705 8.51319 129.721 8.4801C129.868 8.0598 129.946 7.83409 130.086 7.45271H132.581L132.946 8.45675C132.96 8.49094 132.984 8.52027 133.014 8.54105C133.045 8.56183 133.081 8.57312 133.118 8.5735H134.587C134.616 8.57353 134.644 8.56646 134.67 8.5529C134.696 8.53934 134.718 8.51969 134.734 8.49567C134.746 8.46992 134.751 8.44209 134.751 8.41394C134.751 8.3858 134.746 8.35797 134.734 8.33222C133.84 6.04393 133.048 4.00471 132.317 2.10559C132.303 2.07348 132.281 2.04605 132.252 2.02669C132.223 2.00733 132.189 1.99688 132.154 1.99663H130.475L130.514 1.91101Z" fill="white"/>
</g>
<defs>
<linearGradient id="paint0_linear_0_1948" x1="148.99" y1="61.2901" x2="4.05488" y2="52.3394" gradientUnits="userSpaceOnUse">
<stop stop-color="#F98910"/>
<stop offset="0.05" stop-color="#F77127"/>
<stop offset="0.12" stop-color="#F54F47"/>
<stop offset="0.2" stop-color="#F33460"/>
<stop offset="0.28" stop-color="#F22172"/>
<stop offset="0.36" stop-color="#F1167C"/>
<stop offset="0.44" stop-color="#F11280"/>
<stop offset="1" stop-color="#B5147D"/>
</linearGradient>
<linearGradient id="paint1_linear_0_1948" x1="150.117" y1="43.1154" x2="5.17511" y2="34.1652" gradientUnits="userSpaceOnUse">
<stop stop-color="#F98910"/>
<stop offset="0.05" stop-color="#F77127"/>
<stop offset="0.12" stop-color="#F54F47"/>
<stop offset="0.2" stop-color="#F33460"/>
<stop offset="0.28" stop-color="#F22172"/>
<stop offset="0.36" stop-color="#F1167C"/>
<stop offset="0.44" stop-color="#F11280"/>
<stop offset="1" stop-color="#B5147D"/>
</linearGradient>
<linearGradient id="paint2_linear_0_1948" x1="149.635" y1="50.8455" x2="4.70141" y2="41.8954" gradientUnits="userSpaceOnUse">
<stop stop-color="#F98910"/>
<stop offset="0.05" stop-color="#F77127"/>
<stop offset="0.12" stop-color="#F54F47"/>
<stop offset="0.2" stop-color="#F33460"/>
<stop offset="0.28" stop-color="#F22172"/>
<stop offset="0.36" stop-color="#F1167C"/>
<stop offset="0.44" stop-color="#F11280"/>
<stop offset="1" stop-color="#B5147D"/>
</linearGradient>
<linearGradient id="paint3_linear_0_1948" x1="149.76" y1="48.8997" x2="4.81855" y2="39.9495" gradientUnits="userSpaceOnUse">
<stop stop-color="#F98910"/>
<stop offset="0.05" stop-color="#F77127"/>
<stop offset="0.12" stop-color="#F54F47"/>
<stop offset="0.2" stop-color="#F33460"/>
<stop offset="0.28" stop-color="#F22172"/>
<stop offset="0.36" stop-color="#F1167C"/>
<stop offset="0.44" stop-color="#F11280"/>
<stop offset="1" stop-color="#B5147D"/>
</linearGradient>
<linearGradient id="paint4_linear_0_1948" x1="149.566" y1="51.9688" x2="4.63223" y2="43.0187" gradientUnits="userSpaceOnUse">
<stop stop-color="#F98910"/>
<stop offset="0.05" stop-color="#F77127"/>
<stop offset="0.12" stop-color="#F54F47"/>
<stop offset="0.2" stop-color="#F33460"/>
<stop offset="0.28" stop-color="#F22172"/>
<stop offset="0.36" stop-color="#F1167C"/>
<stop offset="0.44" stop-color="#F11280"/>
<stop offset="1" stop-color="#B5147D"/>
</linearGradient>
<linearGradient id="paint5_linear_0_1948" x1="149.699" y1="49.8928" x2="4.75744" y2="40.9426" gradientUnits="userSpaceOnUse">
<stop stop-color="#F98910"/>
<stop offset="0.05" stop-color="#F77127"/>
<stop offset="0.12" stop-color="#F54F47"/>
<stop offset="0.2" stop-color="#F33460"/>
<stop offset="0.28" stop-color="#F22172"/>
<stop offset="0.36" stop-color="#F1167C"/>
<stop offset="0.44" stop-color="#F11280"/>
<stop offset="1" stop-color="#B5147D"/>
</linearGradient>
<linearGradient id="paint6_linear_0_1948" x1="148.809" y1="64.2212" x2="3.84466" y2="55.2672" gradientUnits="userSpaceOnUse">
<stop stop-color="#F98910"/>
<stop offset="0.05" stop-color="#F77127"/>
<stop offset="0.12" stop-color="#F54F47"/>
<stop offset="0.2" stop-color="#F33460"/>
<stop offset="0.28" stop-color="#F22172"/>
<stop offset="0.36" stop-color="#F1167C"/>
<stop offset="0.44" stop-color="#F11280"/>
<stop offset="1" stop-color="#B5147D"/>
</linearGradient>
<linearGradient id="paint7_linear_0_1948" x1="148.809" y1="64.2212" x2="3.84466" y2="55.2672" gradientUnits="userSpaceOnUse">
<stop stop-color="#F98910"/>
<stop offset="0.05" stop-color="#F77127"/>
<stop offset="0.12" stop-color="#F54F47"/>
<stop offset="0.2" stop-color="#F33460"/>
<stop offset="0.28" stop-color="#F22172"/>
<stop offset="0.36" stop-color="#F1167C"/>
<stop offset="0.44" stop-color="#F11280"/>
<stop offset="1" stop-color="#B5147D"/>
</linearGradient>
<linearGradient id="paint8_linear_0_1948" x1="148.795" y1="64.4625" x2="3.86137" y2="55.5123" gradientUnits="userSpaceOnUse">
<stop stop-color="#F98910"/>
<stop offset="0.05" stop-color="#F77127"/>
<stop offset="0.12" stop-color="#F54F47"/>
<stop offset="0.2" stop-color="#F33460"/>
<stop offset="0.28" stop-color="#F22172"/>
<stop offset="0.36" stop-color="#F1167C"/>
<stop offset="0.44" stop-color="#F11280"/>
<stop offset="1" stop-color="#B5147D"/>
</linearGradient>
<linearGradient id="paint9_linear_0_1948" x1="148.795" y1="64.4625" x2="3.86137" y2="55.5123" gradientUnits="userSpaceOnUse">
<stop stop-color="#F98910"/>
<stop offset="0.05" stop-color="#F77127"/>
<stop offset="0.12" stop-color="#F54F47"/>
<stop offset="0.2" stop-color="#F33460"/>
<stop offset="0.28" stop-color="#F22172"/>
<stop offset="0.36" stop-color="#F1167C"/>
<stop offset="0.44" stop-color="#F11280"/>
<stop offset="1" stop-color="#B5147D"/>
</linearGradient>
<linearGradient id="paint10_linear_0_1948" x1="148.795" y1="64.4625" x2="3.86137" y2="55.5123" gradientUnits="userSpaceOnUse">
<stop stop-color="#F98910"/>
<stop offset="0.05" stop-color="#F77127"/>
<stop offset="0.12" stop-color="#F54F47"/>
<stop offset="0.2" stop-color="#F33460"/>
<stop offset="0.28" stop-color="#F22172"/>
<stop offset="0.36" stop-color="#F1167C"/>
<stop offset="0.44" stop-color="#F11280"/>
<stop offset="1" stop-color="#B5147D"/>
</linearGradient>
<linearGradient id="paint11_linear_0_1948" x1="149.495" y1="53.1641" x2="4.55358" y2="44.2139" gradientUnits="userSpaceOnUse">
<stop stop-color="#F98910"/>
<stop offset="0.05" stop-color="#F77127"/>
<stop offset="0.12" stop-color="#F54F47"/>
<stop offset="0.2" stop-color="#F33460"/>
<stop offset="0.28" stop-color="#F22172"/>
<stop offset="0.36" stop-color="#F1167C"/>
<stop offset="0.44" stop-color="#F11280"/>
<stop offset="1" stop-color="#B5147D"/>
</linearGradient>
<linearGradient id="paint12_linear_0_1948" x1="149.986" y1="45.2659" x2="5.04409" y2="36.308" gradientUnits="userSpaceOnUse">
<stop stop-color="#F98910"/>
<stop offset="0.05" stop-color="#F77127"/>
<stop offset="0.12" stop-color="#F54F47"/>
<stop offset="0.2" stop-color="#F33460"/>
<stop offset="0.28" stop-color="#F22172"/>
<stop offset="0.36" stop-color="#F1167C"/>
<stop offset="0.44" stop-color="#F11280"/>
<stop offset="1" stop-color="#B5147D"/>
</linearGradient>
<linearGradient id="paint13_linear_0_1948" x1="150.203" y1="41.689" x2="5.2692" y2="32.7389" gradientUnits="userSpaceOnUse">
<stop stop-color="#F98910"/>
<stop offset="0.05" stop-color="#F77127"/>
<stop offset="0.12" stop-color="#F54F47"/>
<stop offset="0.2" stop-color="#F33460"/>
<stop offset="0.28" stop-color="#F22172"/>
<stop offset="0.36" stop-color="#F1167C"/>
<stop offset="0.44" stop-color="#F11280"/>
<stop offset="1" stop-color="#B5147D"/>
</linearGradient>
<linearGradient id="paint14_linear_0_1948" x1="150.149" y1="42.5188" x2="5.21481" y2="33.5686" gradientUnits="userSpaceOnUse">
<stop stop-color="#F98910"/>
<stop offset="0.05" stop-color="#F77127"/>
<stop offset="0.12" stop-color="#F54F47"/>
<stop offset="0.2" stop-color="#F33460"/>
<stop offset="0.28" stop-color="#F22172"/>
<stop offset="0.36" stop-color="#F1167C"/>
<stop offset="0.44" stop-color="#F11280"/>
<stop offset="1" stop-color="#B5147D"/>
</linearGradient>
<linearGradient id="paint15_linear_0_1948" x1="149.822" y1="47.8906" x2="4.8803" y2="38.9404" gradientUnits="userSpaceOnUse">
<stop stop-color="#F98910"/>
<stop offset="0.05" stop-color="#F77127"/>
<stop offset="0.12" stop-color="#F54F47"/>
<stop offset="0.2" stop-color="#F33460"/>
<stop offset="0.28" stop-color="#F22172"/>
<stop offset="0.36" stop-color="#F1167C"/>
<stop offset="0.44" stop-color="#F11280"/>
<stop offset="1" stop-color="#B5147D"/>
</linearGradient>
<linearGradient id="paint16_linear_0_1948" x1="148.572" y1="68.0869" x2="3.63731" y2="59.1288" gradientUnits="userSpaceOnUse">
<stop stop-color="#F98910"/>
<stop offset="0.05" stop-color="#F77127"/>
<stop offset="0.12" stop-color="#F54F47"/>
<stop offset="0.2" stop-color="#F33460"/>
<stop offset="0.28" stop-color="#F22172"/>
<stop offset="0.36" stop-color="#F1167C"/>
<stop offset="0.44" stop-color="#F11280"/>
<stop offset="1" stop-color="#B5147D"/>
</linearGradient>
<linearGradient id="paint17_linear_0_1948" x1="149.839" y1="68.236" x2="3.46576" y2="59.197" gradientUnits="userSpaceOnUse">
<stop stop-color="#F98910"/>
<stop offset="0.05" stop-color="#F77127"/>
<stop offset="0.12" stop-color="#F54F47"/>
<stop offset="0.2" stop-color="#F33460"/>
<stop offset="0.28" stop-color="#F22172"/>
<stop offset="0.36" stop-color="#F1167C"/>
<stop offset="0.44" stop-color="#F11280"/>
<stop offset="1" stop-color="#B5147D"/>
</linearGradient>
<linearGradient id="paint18_linear_0_1948" x1="149.985" y1="45.1721" x2="5.05156" y2="36.2219" gradientUnits="userSpaceOnUse">
<stop stop-color="#F98910"/>
<stop offset="0.05" stop-color="#F77127"/>
<stop offset="0.12" stop-color="#F54F47"/>
<stop offset="0.2" stop-color="#F33460"/>
<stop offset="0.28" stop-color="#F22172"/>
<stop offset="0.36" stop-color="#F1167C"/>
<stop offset="0.44" stop-color="#F11280"/>
<stop offset="1" stop-color="#B5147D"/>
</linearGradient>
<linearGradient id="paint19_linear_0_1948" x1="150.909" y1="30.2072" x2="5.97674" y2="21.2572" gradientUnits="userSpaceOnUse">
<stop stop-color="#F98910"/>
<stop offset="0.05" stop-color="#F77127"/>
<stop offset="0.12" stop-color="#F54F47"/>
<stop offset="0.2" stop-color="#F33460"/>
<stop offset="0.28" stop-color="#F22172"/>
<stop offset="0.36" stop-color="#F1167C"/>
<stop offset="0.44" stop-color="#F11280"/>
<stop offset="1" stop-color="#B5147D"/>
</linearGradient>
<linearGradient id="paint20_linear_0_1948" x1="150.909" y1="30.2072" x2="5.97674" y2="21.2572" gradientUnits="userSpaceOnUse">
<stop stop-color="#F98910"/>
<stop offset="0.05" stop-color="#F77127"/>
<stop offset="0.12" stop-color="#F54F47"/>
<stop offset="0.2" stop-color="#F33460"/>
<stop offset="0.28" stop-color="#F22172"/>
<stop offset="0.36" stop-color="#F1167C"/>
<stop offset="0.44" stop-color="#F11280"/>
<stop offset="1" stop-color="#B5147D"/>
</linearGradient>
<linearGradient id="paint21_linear_0_1948" x1="150.909" y1="30.2072" x2="5.97674" y2="21.2572" gradientUnits="userSpaceOnUse">
<stop stop-color="#F98910"/>
<stop offset="0.05" stop-color="#F77127"/>
<stop offset="0.12" stop-color="#F54F47"/>
<stop offset="0.2" stop-color="#F33460"/>
<stop offset="0.28" stop-color="#F22172"/>
<stop offset="0.36" stop-color="#F1167C"/>
<stop offset="0.44" stop-color="#F11280"/>
<stop offset="1" stop-color="#B5147D"/>
</linearGradient>
<linearGradient id="paint22_linear_0_1948" x1="149.984" y1="45.1903" x2="5.05038" y2="36.2401" gradientUnits="userSpaceOnUse">
<stop stop-color="#F98910"/>
<stop offset="0.05" stop-color="#F77127"/>
<stop offset="0.12" stop-color="#F54F47"/>
<stop offset="0.2" stop-color="#F33460"/>
<stop offset="0.28" stop-color="#F22172"/>
<stop offset="0.36" stop-color="#F1167C"/>
<stop offset="0.44" stop-color="#F11280"/>
<stop offset="1" stop-color="#B5147D"/>
</linearGradient>
<clipPath id="clip0_0_1948">
<rect width="271" height="77" fill="white"/>
</clipPath>
</defs>
</svg>
